<?xml version="1.0" encoding="UTF-8" standalone="no"?>
<!-- Generator: Adobe Illustrator 15.1.0, SVG Export Plug-In . SVG Version: 6.00 Build 0)  -->

<svg
   version="1.1"
   id="Layer_4"
   x="0px"
   y="0px"
   width="54.401001"
   height="86.851997"
   viewBox="0 -9.954 54.401001 86.852"
   enable-background="new 0 -9.954 215 86.852"
   xml:space="preserve"
   sodipodi:docname="scalar-logo.svg"
   inkscape:version="1.3.2 (091e20e, 2023-11-25)"
   xmlns:inkscape="http://www.inkscape.org/namespaces/inkscape"
   xmlns:sodipodi="http://sodipodi.sourceforge.net/DTD/sodipodi-0.dtd"
   xmlns="http://www.w3.org/2000/svg"
   xmlns:svg="http://www.w3.org/2000/svg"><defs
   id="defs99" /><sodipodi:namedview
   id="namedview99"
   pagecolor="#ffffff"
   bordercolor="#000000"
   borderopacity="0.25"
   inkscape:showpageshadow="2"
   inkscape:pageopacity="0.0"
   inkscape:pagecheckerboard="0"
   inkscape:deskcolor="#d1d1d1"
   inkscape:zoom="2.7172662"
   inkscape:cx="107.64495"
   inkscape:cy="43.425999"
   inkscape:window-width="1312"
   inkscape:window-height="449"
   inkscape:window-x="0"
   inkscape:window-y="44"
   inkscape:window-maximized="0"
   inkscape:current-layer="g99" />
<g
   id="g99">
	<g
   id="g63">
		<polygon
   fill="#58595b"
   points="30.262,33.689 0,33.472 49.013,76.898 "
   id="polygon1" />
		<polygon
   fill="#58595b"
   points="30.262,33.257 0,33.472 49.013,-9.954 "
   id="polygon2" />
		<polygon
   points="38.827,52.486 0,33.472 38.827,14.46 49.848,33.472 "
   id="polygon3" />
		<polygon
   fill="#58595b"
   points="54.401,14.883 49.864,33.472 40.802,33.472 "
   id="polygon4" />
		
			<linearGradient
   id="SVGID_1_"
   gradientUnits="userSpaceOnUse"
   x1="641.24609"
   y1="1546.5432"
   x2="641.24609"
   y2="1565.2531"
   gradientTransform="translate(-593,-1531.8262)">
			<stop
   offset="0"
   style="stop-color:#F1F2F2"
   id="stop4" />
			<stop
   offset="0.3266"
   style="stop-color:#EEEEEF"
   id="stop5" />
			<stop
   offset="0.6449"
   style="stop-color:#E4E5E6"
   id="stop6" />
			<stop
   offset="0.959"
   style="stop-color:#D4D5D7"
   id="stop7" />
			<stop
   offset="1"
   style="stop-color:#D1D3D4"
   id="stop8" />
		</linearGradient>
		<polygon
   fill="url(#SVGID_1_)"
   points="54.401,14.883 49.864,33.472 42.09,33.472 "
   id="polygon8"
   style="fill:url(#SVGID_1_)" />
		<polygon
   fill="#58595b"
   points="54.401,52.063 49.864,33.472 40.802,33.472 "
   id="polygon9" />
		
			<linearGradient
   id="SVGID_2_"
   gradientUnits="userSpaceOnUse"
   x1="641.24609"
   y1="-2033.9446"
   x2="641.24609"
   y2="-2015.2295"
   gradientTransform="matrix(1,0,0,-1,-593,-1981.7173)">
			<stop
   offset="0"
   style="stop-color:#F1F2F2"
   id="stop9" />
			<stop
   offset="0.3591"
   style="stop-color:#EEEFF0"
   id="stop10" />
			<stop
   offset="0.6437"
   style="stop-color:#E6E7E8"
   id="stop11" />
			<stop
   offset="0.9018"
   style="stop-color:#D8DADB"
   id="stop12" />
			<stop
   offset="1"
   style="stop-color:#D1D3D4"
   id="stop13" />
		</linearGradient>
		<polygon
   fill="url(#SVGID_2_)"
   points="54.401,52.063 49.864,33.472 42.09,33.472 "
   id="polygon13"
   style="fill:url(#SVGID_2_)" />
		<polygon
   fill="#bcbec0"
   points="54.401,52.063 49.864,33.472 54.401,14.883 49.219,33.472 "
   id="polygon14" />
		<polygon
   fill="#a7a9ac"
   points="46.136,39.581 49.864,33.472 46.136,27.365 42.09,33.472 "
   id="polygon15" />
		
			<linearGradient
   id="SVGID_3_"
   gradientUnits="userSpaceOnUse"
   x1="642.7832"
   y1="1565.2981"
   x2="607.22583"
   y2="1565.2981"
   gradientTransform="translate(-593,-1531.8262)">
			<stop
   offset="0"
   style="stop-color:#F1F2F2"
   id="stop15" />
			<stop
   offset="0.3238"
   style="stop-color:#EBEBEC"
   id="stop16" />
			<stop
   offset="0.8139"
   style="stop-color:#D9DBDC"
   id="stop17" />
			<stop
   offset="1"
   style="stop-color:#D1D3D4"
   id="stop18" />
		</linearGradient>
		<polygon
   fill="url(#SVGID_3_)"
   points="38.221,50.951 0,33.472 38.221,15.993 49.848,33.472 "
   id="polygon18"
   style="fill:url(#SVGID_3_)" />
		<polygon
   fill="#ffffff"
   points="49.219,33.472 38.005,50.854 38.221,50.951 49.848,33.472 38.221,15.993 38.005,16.09 "
   id="polygon19" />
		<g
   id="g38">
			<polygon
   opacity="0.7"
   fill="#58595b"
   enable-background="new    "
   points="42.292,27.923 17.116,27.413 3.866,33.472 7.492,35.13 44.84,35.192 45.869,33.642 45.869,33.303 "
   id="polygon20" />
			<polygon
   opacity="0.7"
   fill="#58595b"
   enable-background="new    "
   points="42.589,38.573 13.949,38.082 30.757,45.771 37.822,45.74 "
   id="polygon21" />
			
				<linearGradient
   id="SVGID_4_"
   gradientUnits="userSpaceOnUse"
   x1="638.83502"
   y1="1575.177"
   x2="614.50629"
   y2="1575.177"
   gradientTransform="translate(-593,-1531.8262)">
				<stop
   offset="0"
   style="stop-color:#ED1F24"
   id="stop21" />
				<stop
   offset="0.3238"
   style="stop-color:#E01F26"
   id="stop22" />
				<stop
   offset="0.8139"
   style="stop-color:#C91E2B"
   id="stop23" />
				<stop
   offset="1"
   style="stop-color:#BE1E2D"
   id="stop24" />
			</linearGradient>
			<polygon
   fill="url(#SVGID_4_)"
   points="42.632,38.509 24.847,43.07 36.057,48.193 36.218,48.153 "
   id="polygon24"
   style="fill:url(#SVGID_4_)" />
			
				<linearGradient
   id="SVGID_5_"
   gradientUnits="userSpaceOnUse"
   x1="638.83588"
   y1="1566.4143"
   x2="614.50732"
   y2="1566.4143"
   gradientTransform="translate(-593,-1531.8262)">
				<stop
   offset="0"
   style="stop-color:#ED1F24"
   id="stop25" />
				<stop
   offset="0.3238"
   style="stop-color:#E01F26"
   id="stop26" />
				<stop
   offset="0.8139"
   style="stop-color:#C91E2B"
   id="stop27" />
				<stop
   offset="1"
   style="stop-color:#BE1E2D"
   id="stop28" />
			</linearGradient>
			<polygon
   fill="url(#SVGID_5_)"
   points="44.83,35.206 45.982,33.472 42.254,27.865 9.799,36.185 21.007,41.311 "
   id="polygon28"
   style="fill:url(#SVGID_5_)" />
			
				<linearGradient
   id="SVGID_6_"
   gradientUnits="userSpaceOnUse"
   x1="638.83789"
   y1="1558.4172"
   x2="614.50842"
   y2="1558.4172"
   gradientTransform="translate(-593,-1531.8262)">
				<stop
   offset="0"
   style="stop-color:#ED1F24"
   id="stop29" />
				<stop
   offset="0.3238"
   style="stop-color:#E01F26"
   id="stop30" />
				<stop
   offset="0.8139"
   style="stop-color:#C91E2B"
   id="stop31" />
				<stop
   offset="1"
   style="stop-color:#BE1E2D"
   id="stop32" />
			</linearGradient>
			<polygon
   fill="url(#SVGID_6_)"
   points="3.866,33.472 6.021,34.455 40.721,25.562 36.176,18.727 36.02,18.769 "
   id="polygon32"
   style="fill:url(#SVGID_6_)" />
			<polygon
   fill="#be1e2d"
   points="24.847,43.07 25.981,43.586 41.983,39.484 42.632,38.509 "
   id="polygon33" />
			<polygon
   fill="#be1e2d"
   points="9.799,36.185 10.933,36.704 42.715,28.558 42.254,27.865 "
   id="polygon34" />
			<polygon
   fill="#be1e2d"
   points="36.02,18.769 3.866,33.472 4.894,33.942 36.639,19.424 36.176,18.727 "
   id="polygon35" />
			<polygon
   fill="#be1e2d"
   points="36.057,48.193 36.218,48.153 42.632,38.509 41.856,38.708 35.664,48.014 "
   id="polygon36" />
			<polygon
   fill="#be1e2d"
   points="45.337,33.472 44.105,35.393 44.83,35.206 45.982,33.472 42.254,27.865 41.705,28.008 "
   id="polygon37" />
			<polygon
   fill="#be1e2d"
   points="36.176,18.727 36.02,18.769 35.664,18.931 40.114,25.718 40.721,25.562 "
   id="polygon38" />
		</g>
		<polygon
   fill="#58595b"
   points="29.081,33.528 0,33.472 49.013,76.898 "
   id="polygon39" />
		
			<linearGradient
   id="SVGID_7_"
   gradientUnits="userSpaceOnUse"
   x1="617.50592"
   y1="1608.5276"
   x2="617.50592"
   y2="1565.9126"
   gradientTransform="translate(-593,-1531.8262)">
			<stop
   offset="0"
   style="stop-color:#F1F2F2"
   id="stop39" />
			<stop
   offset="0.3125"
   style="stop-color:#ECECED"
   id="stop40" />
			<stop
   offset="0.7484"
   style="stop-color:#DDDEDF"
   id="stop41" />
			<stop
   offset="1"
   style="stop-color:#D1D3D4"
   id="stop42" />
		</linearGradient>
		<polygon
   fill="url(#SVGID_7_)"
   points="28.143,34.653 0,33.472 49.013,76.898 "
   id="polygon42"
   style="fill:url(#SVGID_7_)" />
		
			<linearGradient
   id="SVGID_8_"
   gradientUnits="userSpaceOnUse"
   x1="593.08197"
   y1="1587.01"
   x2="636.33911"
   y2="1587.01"
   gradientTransform="translate(-593,-1531.8262)">
			<stop
   offset="0"
   style="stop-color:#F1F2F2"
   id="stop43" />
			<stop
   offset="0.1638"
   style="stop-color:#EEEEEF"
   id="stop44" />
			<stop
   offset="0.3337"
   style="stop-color:#E3E4E5"
   id="stop45" />
			<stop
   offset="0.5062"
   style="stop-color:#D2D3D5"
   id="stop46" />
			<stop
   offset="0.6808"
   style="stop-color:#BABCBE"
   id="stop47" />
			<stop
   offset="0.8549"
   style="stop-color:#9C9EA1"
   id="stop48" />
			<stop
   offset="1"
   style="stop-color:#808285"
   id="stop49" />
		</linearGradient>
		<polygon
   opacity="0.5"
   fill="url(#SVGID_8_)"
   enable-background="new    "
   points="47.729,74.287 0,33.472 49.013,76.898 "
   id="polygon49"
   style="fill:url(#SVGID_8_)" />
		<polygon
   opacity="0.4"
   fill="#ffffff"
   enable-background="new    "
   points="35.604,49.754 28.143,34.653 0,33.472 "
   id="polygon50" />
		<polygon
   fill="#ffffff"
   points="28.69,35.763 28.143,34.653 0,33.472 "
   id="polygon51" />
		<polygon
   fill="#58595b"
   points="29.081,33.417 0,33.472 49.013,-9.954 "
   id="polygon52" />
		
			<linearGradient
   id="SVGID_9_"
   gradientUnits="userSpaceOnUse"
   x1="617.50677"
   y1="1522.178"
   x2="617.50677"
   y2="1565.1914"
   gradientTransform="translate(-593,-1531.8262)">
			<stop
   offset="0"
   style="stop-color:#F1F2F2"
   id="stop52" />
			<stop
   offset="0.3125"
   style="stop-color:#ECECED"
   id="stop53" />
			<stop
   offset="0.7484"
   style="stop-color:#DDDEDF"
   id="stop54" />
			<stop
   offset="1"
   style="stop-color:#D1D3D4"
   id="stop55" />
		</linearGradient>
		<polygon
   fill="url(#SVGID_9_)"
   points="28.143,32.291 0,33.472 49.013,-9.954 "
   id="polygon55"
   style="fill:url(#SVGID_9_)" />
		<polygon
   opacity="0.4"
   fill="#ffffff"
   enable-background="new    "
   points="35.604,17.19 28.143,32.291 0,33.472 "
   id="polygon56" />
		<polygon
   fill="#ffffff"
   points="28.69,31.182 28.143,32.291 0,33.472 "
   id="polygon57" />
		
			<linearGradient
   id="SVGID_10_"
   gradientUnits="userSpaceOnUse"
   x1="593.08197"
   y1="-1945.4216"
   x2="636.33911"
   y2="-1945.4216"
   gradientTransform="matrix(1,0,0,-1,-593,-1933.6626)">
			<stop
   offset="0"
   style="stop-color:#F1F2F2"
   id="stop57" />
			<stop
   offset="0.1638"
   style="stop-color:#EEEEEF"
   id="stop58" />
			<stop
   offset="0.3337"
   style="stop-color:#E3E4E5"
   id="stop59" />
			<stop
   offset="0.5062"
   style="stop-color:#D2D3D5"
   id="stop60" />
			<stop
   offset="0.6808"
   style="stop-color:#BABCBE"
   id="stop61" />
			<stop
   offset="0.8549"
   style="stop-color:#9C9EA1"
   id="stop62" />
			<stop
   offset="1"
   style="stop-color:#808285"
   id="stop63" />
		</linearGradient>
		<polygon
   opacity="0.5"
   fill="url(#SVGID_10_)"
   enable-background="new    "
   points="47.729,-7.344 0,33.472 49.013,-9.954 "
   id="polygon63"
   style="fill:url(#SVGID_10_)" />
	</g>
	
	
</g>
</svg>
